<svg width="15" height="15" viewBox="0 0 15 15" fill="none" xmlns="http://www.w3.org/2000/svg">
<g clip-path="url(#clip0_30_124)">
<path d="M10.625 1.875C10.7892 1.71085 10.984 1.58063 11.1985 1.4918C11.413 1.40296 11.6429 1.35723 11.875 1.35723C12.1071 1.35723 12.337 1.40296 12.5515 1.4918C12.766 1.58063 12.9608 1.71085 13.125 1.875C13.2892 2.03915 13.4194 2.23403 13.5082 2.4485C13.597 2.66298 13.6428 2.89285 13.6428 3.125C13.6428 3.35715 13.597 3.58702 13.5082 3.80149C13.4194 4.01597 13.2892 4.21085 13.125 4.375L4.6875 12.8125L1.25 13.75L2.1875 10.3125L10.625 1.875Z" stroke="white" stroke-width="1.25" stroke-linecap="round" stroke-linejoin="round"/>
</g>
<defs>
<clipPath id="clip0_30_124">
<rect width="15" height="15" rx="4" fill="white"/>
</clipPath>
</defs>
</svg>
