<svg width="20" height="21" viewBox="0 0 20 21" fill="none" xmlns="http://www.w3.org/2000/svg">
<path d="M14.1667 17.5781V15.9115C14.1667 15.0274 13.8155 14.1796 13.1904 13.5544C12.5652 12.9293 11.7174 12.5781 10.8333 12.5781H4.16668C3.28262 12.5781 2.43478 12.9293 1.80965 13.5544C1.18453 14.1796 0.833344 15.0274 0.833344 15.9115V17.5781" stroke="white" stroke-width="1.66667" stroke-linecap="round" stroke-linejoin="round"/>
<path d="M7.49999 9.24479C9.34094 9.24479 10.8333 7.75241 10.8333 5.91146C10.8333 4.07051 9.34094 2.57812 7.49999 2.57812C5.65904 2.57812 4.16666 4.07051 4.16666 5.91146C4.16666 7.75241 5.65904 9.24479 7.49999 9.24479Z" stroke="white" stroke-width="1.66667" stroke-linecap="round" stroke-linejoin="round"/>
<path d="M19.1667 17.5781V15.9115C19.1661 15.1729 18.9203 14.4554 18.4678 13.8717C18.0153 13.288 17.3818 12.8711 16.6667 12.6865" stroke="white" stroke-width="1.66667" stroke-linecap="round" stroke-linejoin="round"/>
<path d="M13.3333 2.68645C14.0504 2.87004 14.6859 3.28704 15.1397 3.87171C15.5935 4.45639 15.8399 5.17548 15.8399 5.91562C15.8399 6.65576 15.5935 7.37485 15.1397 7.95953C14.6859 8.5442 14.0504 8.9612 13.3333 9.14479" stroke="white" stroke-width="1.66667" stroke-linecap="round" stroke-linejoin="round"/>
</svg>
