<svg width="21" height="21" viewBox="0 0 21 21" fill="none" xmlns="http://www.w3.org/2000/svg">
<path d="M3 5.5H4.66667H18" stroke="#2C4B7B" stroke-width="1.66667" stroke-linecap="round" stroke-linejoin="round"/>
<path d="M16.3333 5.50002V17.1667C16.3333 17.6087 16.1577 18.0326 15.8451 18.3452C15.5326 18.6578 15.1087 18.8334 14.6666 18.8334H6.33329C5.89127 18.8334 5.46734 18.6578 5.15478 18.3452C4.84222 18.0326 4.66663 17.6087 4.66663 17.1667V5.50002M7.16663 5.50002V3.83335C7.16663 3.39133 7.34222 2.9674 7.65478 2.65484C7.96734 2.34228 8.39127 2.16669 8.83329 2.16669H12.1666C12.6087 2.16669 13.0326 2.34228 13.3451 2.65484C13.6577 2.9674 13.8333 3.39133 13.8333 3.83335V5.50002" stroke="#2C4B7B" stroke-width="1.66667" stroke-linecap="round" stroke-linejoin="round"/>
</svg>
