<svg width="25" height="25" viewBox="0 0 25 25" fill="none" xmlns="http://www.w3.org/2000/svg">
<path d="M21.4469 13.3397C21.2896 15.0419 20.6507 16.6641 19.6051 18.0165C18.5595 19.3688 17.1504 20.3955 15.5426 20.9762C13.9348 21.557 12.1948 21.6678 10.5264 21.2958C8.85788 20.9237 7.32986 20.0842 6.12109 18.8754C4.91232 17.6667 4.0728 16.1386 3.70077 14.4702C3.32874 12.8017 3.43958 11.0618 4.02032 9.45396C4.60107 7.84618 5.62769 6.43703 6.98007 5.39142C8.33246 4.34581 9.95466 3.70697 11.6569 3.54967C10.6603 4.89793 10.1807 6.55912 10.3054 8.23108C10.4301 9.90305 11.1507 11.4747 12.3363 12.6603C13.5218 13.8458 15.0935 14.5665 16.7654 14.6911C18.4374 14.8158 20.0986 14.3363 21.4469 13.3397Z" stroke="white" stroke-width="2" stroke-linecap="round" stroke-linejoin="round"/>
</svg>
