<svg width="25" height="25" viewBox="0 0 25 25" fill="none" xmlns="http://www.w3.org/2000/svg">
<g clip-path="url(#clip0_58_1591)">
<path d="M12.4469 17.5497C15.2083 17.5497 17.4469 15.3111 17.4469 12.5497C17.4469 9.78824 15.2083 7.54967 12.4469 7.54967C9.68545 7.54967 7.44687 9.78824 7.44687 12.5497C7.44687 15.3111 9.68545 17.5497 12.4469 17.5497Z" stroke="black" stroke-width="2" stroke-linecap="round" stroke-linejoin="round"/>
<path d="M12.4469 1.54967V3.54967" stroke="black" stroke-width="2" stroke-linecap="round" stroke-linejoin="round"/>
<path d="M12.4469 21.5497V23.5497" stroke="black" stroke-width="2" stroke-linecap="round" stroke-linejoin="round"/>
<path d="M4.66687 4.76967L6.08687 6.18967" stroke="black" stroke-width="2" stroke-linecap="round" stroke-linejoin="round"/>
<path d="M18.8069 18.9097L20.2269 20.3297" stroke="black" stroke-width="2" stroke-linecap="round" stroke-linejoin="round"/>
<path d="M1.44687 12.5497H3.44687" stroke="black" stroke-width="2" stroke-linecap="round" stroke-linejoin="round"/>
<path d="M21.4469 12.5497H23.4469" stroke="black" stroke-width="2" stroke-linecap="round" stroke-linejoin="round"/>
<path d="M4.66687 20.3297L6.08687 18.9097" stroke="black" stroke-width="2" stroke-linecap="round" stroke-linejoin="round"/>
<path d="M18.8069 6.18967L20.2269 4.76967" stroke="black" stroke-width="2" stroke-linecap="round" stroke-linejoin="round"/>
</g>
<defs>
<clipPath id="clip0_58_1591">
<rect width="24" height="24" fill="white" transform="translate(0.446869 0.549667)"/>
</clipPath>
</defs>
</svg>
