<svg width="24" height="25" viewBox="0 0 24 25" fill="none" xmlns="http://www.w3.org/2000/svg">
<path d="M22.0001 17.0684V20.0684C22.0012 20.3469 21.9441 20.6226 21.8326 20.8778C21.721 21.133 21.5574 21.362 21.3521 21.5503C21.1469 21.7386 20.9046 21.8819 20.6408 21.9711C20.377 22.0604 20.0974 22.0935 19.8201 22.0684C16.7429 21.7341 13.7871 20.6826 11.1901 18.9984C8.77388 17.4631 6.72539 15.4146 5.19006 12.9984C3.50003 10.3896 2.4483 7.41943 2.12006 4.32844C2.09507 4.0519 2.12793 3.7732 2.21656 3.51006C2.30518 3.24692 2.44763 3.00512 2.63482 2.80006C2.82202 2.59499 3.04986 2.43114 3.30385 2.31896C3.55783 2.20677 3.8324 2.1487 4.11006 2.14844H7.11006C7.59536 2.14366 8.06585 2.31551 8.43382 2.63197C8.80179 2.94842 9.04213 3.38788 9.11005 3.86844C9.23668 4.8285 9.47151 5.77116 9.81006 6.67844C9.9446 7.03636 9.97372 7.42535 9.89396 7.79932C9.81421 8.17328 9.62892 8.51655 9.36005 8.78844L8.09006 10.0584C9.51361 12.562 11.5865 14.6349 14.0901 16.0584L15.3601 14.7884C15.6319 14.5196 15.9752 14.3343 16.3492 14.2545C16.7231 14.1748 17.1121 14.2039 17.4701 14.3384C18.3773 14.677 19.32 14.9118 20.2801 15.0384C20.7658 15.107 21.2095 15.3516 21.5266 15.7259C21.8437 16.1002 22.0122 16.578 22.0001 17.0684Z" stroke="white" stroke-width="2" stroke-linecap="round" stroke-linejoin="round"/>
</svg>
